<?xml version="1.0" encoding="UTF-8"?>
<svg version="1.1" xmlns="http://www.w3.org/2000/svg" width="512" height="512">
<path d="M0 0 C1.21883328 -0.00807831 1.21883328 -0.00807831 2.46228945 -0.01631981 C5.15890682 -0.03051736 7.85502757 -0.02351615 10.55166626 -0.01637268 C12.49571626 -0.02208057 14.43976291 -0.02904645 16.38380432 -0.03717041 C21.64628739 -0.05507129 26.90860343 -0.0539391 32.17110777 -0.04822803 C36.57205099 -0.0451315 40.97296234 -0.05123384 45.37390101 -0.05726677 C55.7604944 -0.07130054 66.14700552 -0.06976047 76.53359985 -0.05836487 C87.23150857 -0.04688672 97.9291665 -0.06095694 108.62704217 -0.08776134 C117.82818657 -0.10994825 127.02925242 -0.11654891 136.23042166 -0.11068493 C141.71867163 -0.10732109 147.2067609 -0.1096923 152.69498825 -0.12693596 C157.85794999 -0.14245049 163.02054149 -0.13839951 168.18348885 -0.11963081 C170.07201761 -0.11595731 171.96057408 -0.11901705 173.84907722 -0.1295166 C190.25439506 -0.21372141 202.18713749 2.65894852 214.62442017 14.01268005 C222.91781473 22.65370193 226.6946854 34.07626232 226.6774292 45.87950134 C226.67999247 46.94331095 226.67999247 46.94331095 226.68260753 48.02861166 C226.68587502 50.38082918 226.67494455 52.7327549 226.66397095 55.08494568 C226.66340624 56.78068536 226.66372456 58.47642552 226.66485596 60.17216492 C226.66542814 64.758365 226.65369558 69.34445977 226.63970804 73.93063545 C226.62717829 78.72991014 226.62602841 83.52918743 226.62365723 88.32847595 C226.61744905 97.40888674 226.6010472 106.48924919 226.58095825 115.56963873 C226.55857862 125.91061225 226.54760063 136.25158812 226.53756738 146.59257984 C226.51668039 167.85764019 226.4815173 189.12265707 226.43692017 210.38768005 C227.03081039 210.37879761 227.62470062 210.36991516 228.23658752 210.36076355 C234.45015787 210.27187159 240.66354586 210.21177303 246.87759399 210.16795349 C249.19277287 210.14791005 251.50790159 210.1206678 253.82290649 210.08592224 C257.16181868 210.03708464 260.50005815 210.01463781 263.83926392 209.99705505 C264.86462753 209.97640991 265.88999115 209.95576477 266.94642639 209.93449402 C276.46470013 209.93156064 283.62257086 212.73180399 290.43692017 219.38768005 C295.15236621 225.54395684 296.68070761 230.9244522 296.72744751 238.62718201 C296.73416473 239.32561218 296.74088196 240.02404236 296.74780273 240.74363708 C296.76669979 243.03781884 296.77070278 245.33170671 296.77285767 247.6259613 C296.77929176 249.23250444 296.78602057 250.83904643 296.79302979 252.44558716 C296.80498211 255.808718 296.80871276 259.17174628 296.80752563 262.53489685 C296.80732265 266.82531036 296.83461194 271.11505995 296.86907005 275.40531635 C296.89140775 278.72295091 296.89536107 282.04042747 296.89430618 285.3581295 C296.8966523 286.9388425 296.90541962 288.51956051 296.92097092 290.10019875 C297.02505794 301.77297472 295.8920171 310.73127129 287.43692017 319.38768005 C279.88198265 325.17444071 273.32910189 325.6742022 264.13223267 325.58299255 C263.05311615 325.58016266 261.97399963 325.57733276 260.86218262 325.57441711 C257.42864718 325.56325666 253.99537626 325.53815936 250.56192017 325.51268005 C248.22859061 325.50264492 245.89525695 325.49352 243.56192017 325.4853363 C237.85349717 325.46333085 232.14522757 325.42989432 226.43692017 325.38768005 C226.44580261 326.69931625 226.45468506 328.01095245 226.46383667 329.36233521 C226.54516058 341.76394761 226.60499963 354.16550542 226.64416885 366.56732464 C226.66498356 372.94220846 226.69318936 379.31687584 226.73867798 385.69163513 C226.78235387 391.85137859 226.8061032 398.01091473 226.81642914 404.17080116 C226.82378157 406.51297579 226.8381385 408.85513994 226.85984039 411.19722557 C227.00223355 427.21106258 227.044472 441.37608025 216.43692017 454.38768005 C215.88520142 455.07475037 215.33348267 455.76182068 214.76504517 456.4697113 C208.72696163 463.21739868 199.39976654 468.72892075 190.43692017 470.38768005 C187.7789057 470.48987234 185.14671949 470.5398249 182.48857117 470.5415802 C181.6816989 470.54596245 180.87482664 470.55034471 180.0435037 470.55485976 C177.33617985 470.56822819 174.62888854 470.57442232 171.92153931 470.58055115 C169.98147434 470.58845388 168.04141084 470.59672294 166.10134888 470.60533142 C159.72493898 470.63153962 153.34852257 470.6468615 146.97207642 470.66111755 C144.77451511 470.66647841 142.57695385 470.67185592 140.37939262 470.67724991 C131.23387375 470.6988801 122.08835662 470.7176143 112.94281864 470.7288723 C99.85215547 470.74509407 86.76178994 470.77822743 73.67123896 470.83527315 C64.45914177 470.87404256 55.24712394 470.89351349 46.03494734 470.89879286 C40.53754234 470.90243773 35.04045488 470.91436661 29.5431385 470.9468956 C24.36462418 470.97709804 19.1866175 470.9832447 14.00803375 470.97151184 C12.11549163 470.9712921 10.22292513 470.97951409 8.33046532 470.99716568 C-8.21566616 471.14299595 -20.14216153 468.3234139 -32.49276733 456.5478363 C-41.80232289 446.77879625 -44.89813712 434.29458962 -44.80358887 421.14315796 C-44.80529772 420.25750438 -44.80700657 419.3718508 -44.8087672 418.45935923 C-44.81203991 415.51602947 -44.80109522 412.57293188 -44.79013062 409.62962341 C-44.78956602 407.51009629 -44.789884 405.39056877 -44.79101562 403.27104187 C-44.79158825 397.53411999 -44.7798484 391.79728214 -44.76586771 386.06037974 C-44.75334544 380.05860876 -44.75218867 374.05683574 -44.74981689 368.05505371 C-44.74360653 356.69743419 -44.72720169 345.33985328 -44.70711792 333.98225075 C-44.68474513 321.04879894 -44.67376201 308.11534527 -44.66372705 295.18187892 C-44.6428351 268.58379125 -44.60766772 241.98573782 -44.56307983 215.38768005 C-45.20708237 215.3965625 -45.8510849 215.40544495 -46.51460266 215.41459656 C-53.24722372 215.50342906 -59.97967693 215.56356302 -66.71273804 215.60740662 C-69.22192147 215.62746068 -71.73105853 215.6547109 -74.24008179 215.68943787 C-77.85697916 215.73822759 -81.47325594 215.76071187 -85.09042358 215.77830505 C-86.75971169 215.80927277 -86.75971169 215.80927277 -88.46272278 215.84086609 C-98.27932179 215.84366293 -105.51663579 213.27025331 -112.56307983 206.38768005 C-117.32457423 200.17128459 -118.8619389 194.53898561 -118.86947632 186.79685974 C-118.88196159 185.69310249 -118.88196159 185.69310249 -118.8946991 184.56704712 C-118.91868343 182.14782834 -118.92755764 179.72887991 -118.93417358 177.30955505 C-118.94314992 175.61572698 -118.95227193 173.92189967 -118.96153259 172.22807312 C-118.9779946 168.68083272 -118.98571739 165.13368637 -118.98861694 161.58641052 C-118.99399263 157.06281765 -119.03165047 152.54012115 -119.07736111 148.01678085 C-119.10725113 144.51810051 -119.11434311 141.01963274 -119.11534309 137.52083588 C-119.11952306 135.85440727 -119.13186708 134.18797672 -119.15286064 132.52167511 C-119.27263821 122.19125338 -119.04748793 113.18823427 -111.55476379 105.26359558 C-104.99474147 99.09723375 -98.39763324 96.25139005 -89.40560913 96.27415466 C-88.40494919 96.27423019 -87.40428925 96.27430573 -86.37330627 96.27438354 C-85.30542374 96.27954483 -84.2375412 96.28470612 -83.13729858 96.2900238 C-82.03457108 96.29143875 -80.93184357 96.2928537 -79.79570007 96.29431152 C-76.28063217 96.29990002 -72.76562842 96.31245046 -69.25057983 96.32518005 C-66.86451305 96.33019654 -64.47844526 96.33475919 -62.09237671 96.33885193 C-56.24925593 96.34986568 -50.40617247 96.36659242 -44.56307983 96.38768005 C-44.57307259 95.37529266 -44.57307259 95.37529266 -44.58326721 94.342453 C-44.65003639 87.26871034 -44.69505191 80.19505833 -44.72787476 73.12107849 C-44.74288923 70.48692687 -44.76330697 67.85279994 -44.78939819 65.21873474 C-44.82610509 61.41561255 -44.84288033 57.61282312 -44.85604858 53.80955505 C-44.87153244 52.64655884 -44.8870163 51.48356262 -44.90296936 50.2853241 C-44.90579389 36.32111959 -41.56267616 23.45505331 -31.81307983 13.07518005 C-22.81628797 4.71244781 -12.29632026 -0.09978863 0 0 Z " fill="#010101" transform="translate(169.56307983398438,20.612319946289063)"/>
<path d="M0 0 C82.5 0 165 0 250 0 C250 47.85 250 95.7 250 145 C230.86 145.33 211.72 145.66 192 146 C180.73035353 151.15803584 180.73035353 151.15803584 174 160 C173.48826736 160.94844284 172.97653473 161.89688568 172.44929504 162.87406921 C170.22617915 168.14995793 170.58991422 173.6016334 170.62768555 179.23754883 C170.62403488 180.45455475 170.62038422 181.67156067 170.61662292 182.92544556 C170.60992847 186.24551434 170.61659508 189.56501803 170.62995505 192.88503098 C170.64130971 196.36343291 170.63715928 199.84182106 170.63520813 203.32023621 C170.63432701 209.15486486 170.64537228 214.98937691 170.66381836 220.82397461 C170.68503288 227.57297907 170.6884843 234.3218134 170.6822564 241.07084447 C170.6765684 247.56727397 170.68219851 254.06364347 170.69342995 260.56006432 C170.69807839 263.3243896 170.69894881 266.08867823 170.6968441 268.85300636 C170.69461619 272.70521037 170.70904692 276.55725145 170.7253418 280.40942383 C170.72286438 281.56007828 170.72038696 282.71073273 170.71783447 283.89625549 C170.72491928 284.94065796 170.73200409 285.98506042 170.73930359 287.06111145 C170.74135646 287.97196912 170.74340933 288.88282679 170.74552441 289.8212862 C170.79617927 292.20971211 170.79617927 292.20971211 173 294 C177.90524735 293.78349253 180.23063583 292.38056666 183.6875 289 C187.11740267 285.75411596 190.57205415 282.65044017 194.25 279.6875 C199.32917353 275.57923839 204.291916 271.34931573 209.22949219 267.07299805 C209.7918457 266.58742432 210.35419922 266.10185059 210.93359375 265.6015625 C211.42915771 265.17182129 211.92472168 264.74208008 212.43530273 264.29931641 C224.91048788 253.93998806 222.28275278 260 250 260 C250 281.45 250 302.9 250 325 C167.5 325 85 325 0 325 C0 267.25 0 209.5 0 150 C27 150 27 150 34.375 154.8125 C37.234375 157.85546875 37.234375 157.85546875 38.59179688 159.43896484 C41.01595933 162.12622122 43.82980045 164.33764861 46.625 166.625 C47.70048042 167.53236083 48.77471869 168.4411962 49.84765625 169.3515625 C54.52079781 173.28790204 59.23188277 177.17913811 64 181 C64.70640625 181.58265625 65.4128125 182.1653125 66.140625 182.765625 C68.00441342 184.28325778 68.00441342 184.28325778 70.6875 183.75 C72.93769969 183.21379042 72.93769969 183.21379042 74 182 C74.10478628 180.36292735 74.13964369 178.72133817 74.14717102 177.08093262 C74.15432632 176.01555267 74.16148163 174.95017273 74.16885376 173.85250854 C74.17154266 172.67334869 74.17423157 171.49418884 74.17700195 170.27929688 C74.18357315 169.04515045 74.19014435 167.81100403 74.19691467 166.53945923 C74.21329152 163.14231565 74.22488643 159.74523469 74.2331202 156.34806633 C74.2382682 154.22413259 74.24434429 152.10020323 74.25063133 149.97627258 C74.26969919 143.32715638 74.28392207 136.67805133 74.2922433 130.02891302 C74.30199669 122.36203355 74.32825938 114.69544427 74.36874419 107.02866697 C74.39897199 101.09989035 74.4137188 95.17119652 74.41702431 89.24234438 C74.41936894 85.70345994 74.42825058 82.16488489 74.45348549 78.62608337 C74.48124207 74.66924943 74.47691471 70.71279163 74.4699707 66.75585938 C74.48278076 65.59289337 74.49559082 64.42992737 74.50878906 63.23171997 C74.44945545 53.93548923 72.22799688 46.46440826 65.79916382 39.55680847 C58.43411018 33.18386022 50.62387273 32.26019724 41.2109375 32.29296875 C40.02650055 32.27784744 38.8420636 32.26272614 37.62173462 32.24714661 C33.87262632 32.2044731 30.12432636 32.19545063 26.375 32.1875 C23.81898923 32.1643401 21.26299746 32.13897169 18.70703125 32.11132812 C12.47092061 32.04455601 6.23702463 32.02338353 0 32 C0 21.44 0 10.88 0 0 Z " fill="#E3EFFC" transform="translate(136,86)"/>
<path d="M0 0 C82.5 0 165 0 250 0 C250 38.50765306 250 38.50765306 238.75 50.625 C231.03668882 58.0751705 221.35894355 60.31305431 210.85415649 60.26742554 C209.68454913 60.27422221 209.68454913 60.27422221 208.49131334 60.28115618 C205.89990895 60.29373358 203.30871653 60.29218417 200.71728516 60.29052734 C198.85057813 60.29651669 196.98387357 60.30332317 195.11717224 60.31088257 C190.06133733 60.32850664 185.00557017 60.33323638 179.94970751 60.33451414 C176.78766588 60.33593813 173.62564135 60.34021238 170.46360397 60.34550858 C159.42299053 60.3639957 148.38242529 60.37218068 137.34179688 60.37060547 C127.06481164 60.36940385 116.78803634 60.39051357 106.51110423 60.4220928 C97.67433171 60.44827508 88.8376277 60.45897197 80.0008167 60.45769465 C74.7288692 60.45718567 69.45710845 60.46283376 64.18519974 60.48405075 C59.22581792 60.50346644 54.26680041 60.50353479 49.30740547 60.48901749 C47.49262902 60.48693256 45.67782955 60.49161137 43.86309242 60.5037384 C30.70202113 60.58595695 20.00194453 59.33791501 10 50 C-3.71898294 35.39947599 0 21.09981295 0 0 Z " fill="#4D5E7E" transform="translate(136,421)"/>
<path d="M0 0 C1.11958603 -0.01036789 2.23917206 -0.02073578 3.39268494 -0.03141785 C7.08255994 -0.05845545 10.77124365 -0.04883184 14.46118164 -0.03637695 C17.03276399 -0.04228708 19.60434357 -0.0495343 22.17591858 -0.05805969 C27.56177689 -0.06993489 32.94718408 -0.06366712 38.33300781 -0.04394531 C44.5437251 -0.0215882 50.75340257 -0.03917871 56.96402162 -0.0769946 C62.95757579 -0.11208392 68.95060704 -0.1134012 74.94427681 -0.10111427 C77.48593833 -0.09962931 80.02762257 -0.10729743 82.56922722 -0.12436485 C86.12633433 -0.14437374 89.68127331 -0.12591221 93.23828125 -0.09765625 C94.2832074 -0.11137268 95.32813354 -0.12508911 96.40472412 -0.13922119 C102.49341669 -0.04278051 106.40130261 0.86199238 111.04111958 4.93277931 C116.9119099 11.11572254 117.25337495 16.56784056 117.13793945 24.92236328 C117.13852356 26.03529251 117.13910767 27.14822174 117.13970947 28.2948761 C117.13693204 31.95821777 117.10585448 35.62073674 117.07446289 39.28393555 C117.06699933 41.82983455 117.06130694 44.37573931 117.05731201 46.92164612 C117.04362165 52.9281248 117.01212539 58.9342526 116.97191405 64.94059092 C116.92711104 71.78217766 116.90518797 78.62377885 116.88513231 85.46547592 C116.84338981 99.53142656 116.7730913 113.59711809 116.68383789 127.6628418 C115.42008408 126.72372557 114.15754593 125.78297335 112.89550781 124.84155273 C112.19229904 124.31785095 111.48909027 123.79414917 110.76457214 123.25457764 C107.17139606 120.5058426 103.80224833 117.50720909 100.41235352 114.5144043 C99.27171818 113.52116188 98.11477561 112.54640612 96.94410706 111.58874512 C94.68383789 109.6628418 94.68383789 109.6628418 92.18553162 107.17883301 C82.28844456 98.19515633 73.52190321 98.35023646 60.60571289 98.6784668 C58.58321382 98.68994115 56.56067828 98.69609088 54.53814697 98.69720459 C49.24711856 98.71030635 43.9584083 98.77770381 38.66809082 98.86236572 C30.18968995 98.99468574 21.71163564 99.06916831 13.23227692 99.09490204 C10.28606479 99.11557834 7.34247466 99.17533994 4.39691162 99.23858643 C-12.06689897 99.44956096 -12.06689897 99.44956096 -17.77119446 94.45147705 C-24.43460039 86.73713899 -23.92265109 78.42032454 -23.88256836 68.6315918 C-23.88781155 67.07034944 -23.89409057 65.50911025 -23.90135193 63.94787598 C-23.91172246 60.68653382 -23.90724272 57.42562891 -23.89257812 54.16430664 C-23.87538406 50.00140895 -23.89890922 45.83989082 -23.93406773 41.67714691 C-23.95610985 38.45643102 -23.95458414 35.2360419 -23.94630241 32.01527405 C-23.94548682 30.48119085 -23.95227478 28.94708271 -23.96707344 27.41307068 C-24.08417664 13.08082861 -24.08417664 13.08082861 -20.07139587 7.33752441 C-13.38496305 0.95794521 -9.10691815 -0.0743733 0 0 Z " fill="#27D380" transform="translate(84.316162109375,127.337158203125)"/>
<path d="M0 0 C1.09047134 -0.0071553 2.18094269 -0.01431061 3.30445862 -0.02168274 C6.89155595 -0.03852394 10.4773955 -0.01919223 14.06445312 0.00219727 C16.56734317 0.00136816 19.07023316 -0.00109281 21.57312012 -0.00511169 C26.81174157 -0.00796658 32.0500399 0.00616842 37.28857422 0.03417969 C43.32815384 0.06622713 49.36708753 0.06621258 55.40671301 0.04896492 C61.23843301 0.03305064 67.06991643 0.03996446 72.90162659 0.05690193 C75.37349419 0.06207437 77.84538038 0.06161337 80.31724548 0.05535698 C83.77570204 0.04988901 87.23307343 0.07033274 90.69140625 0.09765625 C91.70670914 0.09113037 92.72201202 0.08460449 93.76808167 0.07788086 C101.05027165 0.17539555 106.3772928 1.58662934 111.91390991 6.44651794 C116.9023029 13.52600829 116.68749946 20.78161928 116.57226562 29.10375977 C116.57122604 30.59630837 116.57227065 32.08885972 116.57528687 33.58140564 C116.57510833 36.69580455 116.55444114 39.80915812 116.51806641 42.92333984 C116.47265201 46.89669238 116.47161961 50.86852401 116.4851017 54.84206486 C116.49181335 57.91956382 116.47846239 60.99672176 116.45884323 64.07415581 C116.45119687 65.53842823 116.44881865 67.00273876 116.45201492 68.46702766 C116.45803663 84.95925603 116.45803663 84.95925603 110.02929688 91.47094727 C109.45308594 91.83317383 108.876875 92.19540039 108.28320312 92.56860352 C107.70441406 92.94887695 107.125625 93.32915039 106.52929688 93.72094727 C102.20322786 96.05963423 97.98434638 95.74152614 93.21850586 95.69360352 C91.39082464 95.68415724 89.56314205 95.67497369 87.73545837 95.66601562 C86.76548353 95.65972137 85.79550869 95.65342712 84.79614067 95.64694214 C79.6531625 95.61994117 74.51021673 95.6298513 69.3671875 95.63500977 C62.82508369 95.64121084 56.2838428 95.63599656 49.74194336 95.57983398 C44.45359737 95.53541355 39.16683894 95.53510542 33.87840462 95.56396484 C31.86867418 95.56703487 29.85885132 95.55424883 27.84933281 95.52490234 C14.80981851 95.03119142 14.80981851 95.03119142 3.71850586 101.04150391 C2.39274292 102.54128905 1.09547863 104.06743346 -0.15429688 105.63110352 C-1.93067097 107.12860094 -3.71877881 108.61257199 -5.52929688 110.06860352 C-8.53288475 112.49721886 -11.52636751 114.93400469 -14.48242188 117.42016602 C-15.03236816 117.88237549 -15.58231445 118.34458496 -16.14892578 118.82080078 C-17.70662937 120.13241613 -19.26253884 121.44616132 -20.81835938 122.76000977 C-23.15429688 124.63110352 -23.15429688 124.63110352 -24.15429688 124.63110352 C-24.27129285 110.29676834 -24.35903148 95.96250761 -24.41335773 81.62779236 C-24.43943384 74.97131504 -24.47479645 68.31524416 -24.53149414 61.65893555 C-24.58588293 55.2333664 -24.61573243 48.80810583 -24.62868309 42.38232422 C-24.63791046 39.93273054 -24.65592946 37.48315346 -24.68294716 35.03369141 C-24.71932688 31.59834504 -24.72423823 28.16426826 -24.72192383 24.72875977 C-24.73990021 23.71959 -24.75787659 22.71042023 -24.77639771 21.67066956 C-24.72873092 15.11727214 -23.66157107 10.53653313 -19.15429688 5.63110352 C-13.34523428 0.29492148 -7.62195904 -0.08777427 0 0 Z " fill="#FCDC40" transform="translate(340.154296875,240.368896484375)"/>
<path d="M0 0 C1.16848944 -0.00551503 1.16848944 -0.00551503 2.36058474 -0.01114148 C4.97351011 -0.02216315 7.58639569 -0.02601963 10.19934082 -0.02983093 C12.07206345 -0.03609689 13.94478485 -0.0427438 15.81750488 -0.04974365 C21.97146745 -0.07077628 28.12543023 -0.08114745 34.27941895 -0.09111023 C36.40023308 -0.09515852 38.52104709 -0.09927547 40.64186096 -0.10346031 C50.60938639 -0.1225127 60.57690442 -0.13674187 70.54444456 -0.14507228 C82.03615451 -0.15483579 93.52767138 -0.18113203 105.01931334 -0.22157317 C113.90953083 -0.25178136 122.79969315 -0.26654574 131.68996096 -0.26985329 C136.9955785 -0.27219901 142.30098981 -0.28109682 147.60655212 -0.30631447 C152.60362586 -0.32968154 157.60035883 -0.33379378 162.59747314 -0.32355309 C164.42431271 -0.32305966 166.25116954 -0.32932264 168.07795715 -0.34310913 C182.11555946 -0.44305813 193.66630142 0.47072403 204.18566895 10.78779602 C207.11387574 14.0389668 209.4186808 17.20168354 211.31066895 21.14717102 C211.62777832 21.79814758 211.9448877 22.44912415 212.27160645 23.11982727 C215.37277416 30.73049115 214.31066895 36.21352029 214.31066895 45.14717102 C131.81066895 45.14717102 49.31066895 45.14717102 -35.68933105 45.14717102 C-35.68933105 24.34161546 -35.68933105 24.34161546 -31.68933105 18.14717102 C-31.11183105 17.11592102 -30.53433105 16.08467102 -29.93933105 15.02217102 C-22.01922274 4.90203262 -12.73537227 -0.00322861 0 0 Z " fill="#4D5E7E" transform="translate(171.6893310546875,30.852828979492188)"/>
<path d="M0 0 C0.81491913 -0.00525696 1.62983826 -0.01051392 2.4694519 -0.01593018 C5.16602689 -0.02914542 7.86201265 -0.02038684 10.55859375 -0.01025391 C12.43042108 -0.01227421 14.30224764 -0.01518528 16.17407227 -0.01895142 C20.09822072 -0.02337683 24.0221644 -0.01693673 27.94628906 -0.00292969 C32.98049722 0.01416233 38.01422559 0.0043223 43.04841614 -0.01364708 C46.91397731 -0.02447905 50.77942443 -0.02104128 54.64498901 -0.0132637 C56.50137387 -0.01126007 58.35776902 -0.01372668 60.21414185 -0.02070236 C62.80710344 -0.02830722 65.39928418 -0.01672655 67.9921875 0 C68.76215057 -0.00607269 69.53211365 -0.01214539 70.32540894 -0.0184021 C73.14060559 0.01530274 75.44496655 0.10257187 77.97207642 1.41220093 C79.62662203 4.60487486 79.41197326 7.88049568 79.38427734 11.39208984 C79.3895343 12.20700897 79.39479126 13.0219281 79.40020752 13.86154175 C79.41342276 16.55811673 79.40466418 19.2541025 79.39453125 21.95068359 C79.39655155 23.82251092 79.39946262 25.69433748 79.40322876 27.56616211 C79.40765417 31.49031056 79.40121407 35.41425424 79.38720703 39.33837891 C79.37011502 44.37258706 79.37995504 49.40631543 79.39792442 54.44050598 C79.40875639 58.30606716 79.40531862 62.17151428 79.39754105 66.03707886 C79.39553741 67.89346371 79.39800402 69.74985886 79.40497971 71.60623169 C79.41258457 74.19919329 79.40100389 76.79137402 79.38427734 79.38427734 C79.39035004 80.15424042 79.39642273 80.92420349 79.40267944 81.71749878 C79.3689746 84.53269543 79.28170547 86.83705639 77.97207642 89.36416626 C74.77940248 91.01871187 71.50378166 90.8040631 67.9921875 90.77636719 C66.76980881 90.78425262 66.76980881 90.78425262 65.5227356 90.79229736 C62.82616061 90.80551261 60.13017485 90.79675403 57.43359375 90.78662109 C55.56176642 90.78864139 53.68993986 90.79155246 51.81811523 90.7953186 C47.89396678 90.79974402 43.9700231 90.79330391 40.04589844 90.77929688 C35.01169028 90.76220486 29.97796191 90.77204488 24.94377136 90.79001427 C21.07821019 90.80084624 17.21276307 90.79740847 13.34719849 90.78963089 C11.49081363 90.78762726 9.63441848 90.79009386 7.77804565 90.79706955 C5.18508406 90.80467441 2.59290332 90.79309374 0 90.77636719 C-0.76996307 90.78243988 -1.53992615 90.78851257 -2.33322144 90.79476929 C-5.14841809 90.76106445 -7.45277905 90.67379531 -9.97988892 89.36416626 C-11.63443453 86.17149233 -11.41978576 82.89587151 -11.39208984 79.38427734 C-11.3973468 78.56935822 -11.40260376 77.75443909 -11.40802002 76.91482544 C-11.42123526 74.21825046 -11.41247668 71.52226469 -11.40234375 68.82568359 C-11.40436405 66.95385627 -11.40727512 65.08202971 -11.41104126 63.21020508 C-11.41546667 59.28605663 -11.40902657 55.36211295 -11.39501953 51.43798828 C-11.37792752 46.40378012 -11.38776754 41.37005175 -11.40573692 36.33586121 C-11.41656889 32.47030003 -11.41313112 28.60485291 -11.40535355 24.73928833 C-11.40334991 22.88290348 -11.40581652 21.02650833 -11.41279221 19.1701355 C-11.42039707 16.5771739 -11.40881639 13.98499317 -11.39208984 11.39208984 C-11.39816254 10.62212677 -11.40423523 9.8521637 -11.41049194 9.05886841 C-11.3767871 6.24367175 -11.28951797 3.9393108 -9.97988892 1.41220093 C-6.78721498 -0.24234468 -3.51159416 -0.02769592 0 0 Z " fill="#65E4FD" transform="translate(172.00390625,295.61181640625)"/>
<path d="M0 0 C0.81491913 -0.00525696 1.62983826 -0.01051392 2.4694519 -0.01593018 C5.16602689 -0.02914542 7.86201265 -0.02038684 10.55859375 -0.01025391 C12.43042108 -0.01227421 14.30224764 -0.01518528 16.17407227 -0.01895142 C20.09822072 -0.02337683 24.0221644 -0.01693673 27.94628906 -0.00292969 C32.98049722 0.01416233 38.01422559 0.0043223 43.04841614 -0.01364708 C46.91397731 -0.02447905 50.77942443 -0.02104128 54.64498901 -0.0132637 C56.50137387 -0.01126007 58.35776902 -0.01372668 60.21414185 -0.02070236 C62.80710344 -0.02830722 65.39928418 -0.01672655 67.9921875 0 C68.76215057 -0.00607269 69.53211365 -0.01214539 70.32540894 -0.0184021 C73.14060559 0.01530274 75.44496655 0.10257187 77.97207642 1.41220093 C79.62662203 4.60487486 79.41197326 7.88049568 79.38427734 11.39208984 C79.3895343 12.20700897 79.39479126 13.0219281 79.40020752 13.86154175 C79.41342276 16.55811673 79.40466418 19.2541025 79.39453125 21.95068359 C79.39655155 23.82251092 79.39946262 25.69433748 79.40322876 27.56616211 C79.40765417 31.49031056 79.40121407 35.41425424 79.38720703 39.33837891 C79.37011502 44.37258706 79.37995504 49.40631543 79.39792442 54.44050598 C79.40875639 58.30606716 79.40531862 62.17151428 79.39754105 66.03707886 C79.39553741 67.89346371 79.39800402 69.74985886 79.40497971 71.60623169 C79.41258457 74.19919329 79.40100389 76.79137402 79.38427734 79.38427734 C79.39035004 80.15424042 79.39642273 80.92420349 79.40267944 81.71749878 C79.3689746 84.53269543 79.28170547 86.83705639 77.97207642 89.36416626 C74.77940248 91.01871187 71.50378166 90.8040631 67.9921875 90.77636719 C66.76980881 90.78425262 66.76980881 90.78425262 65.5227356 90.79229736 C62.82616061 90.80551261 60.13017485 90.79675403 57.43359375 90.78662109 C55.56176642 90.78864139 53.68993986 90.79155246 51.81811523 90.7953186 C47.89396678 90.79974402 43.9700231 90.79330391 40.04589844 90.77929688 C35.01169028 90.76220486 29.97796191 90.77204488 24.94377136 90.79001427 C21.07821019 90.80084624 17.21276307 90.79740847 13.34719849 90.78963089 C11.49081363 90.78762726 9.63441848 90.79009386 7.77804565 90.79706955 C5.18508406 90.80467441 2.59290332 90.79309374 0 90.77636719 C-0.76996307 90.78243988 -1.53992615 90.78851257 -2.33322144 90.79476929 C-5.14841809 90.76106445 -7.45277905 90.67379531 -9.97988892 89.36416626 C-11.63443453 86.17149233 -11.41978576 82.89587151 -11.39208984 79.38427734 C-11.3973468 78.56935822 -11.40260376 77.75443909 -11.40802002 76.91482544 C-11.42123526 74.21825046 -11.41247668 71.52226469 -11.40234375 68.82568359 C-11.40436405 66.95385627 -11.40727512 65.08202971 -11.41104126 63.21020508 C-11.41546667 59.28605663 -11.40902657 55.36211295 -11.39501953 51.43798828 C-11.37792752 46.40378012 -11.38776754 41.37005175 -11.40573692 36.33586121 C-11.41656889 32.47030003 -11.41313112 28.60485291 -11.40535355 24.73928833 C-11.40334991 22.88290348 -11.40581652 21.02650833 -11.41279221 19.1701355 C-11.42039707 16.5771739 -11.40881639 13.98499317 -11.39208984 11.39208984 C-11.39816254 10.62212677 -11.40423523 9.8521637 -11.41049194 9.05886841 C-11.3767871 6.24367175 -11.28951797 3.9393108 -9.97988892 1.41220093 C-6.78721498 -0.24234468 -3.51159416 -0.02769592 0 0 Z M-1.00390625 10.38818359 C-1.00390625 33.48818359 -1.00390625 56.58818359 -1.00390625 80.38818359 C22.09609375 80.38818359 45.19609375 80.38818359 68.99609375 80.38818359 C68.99609375 57.28818359 68.99609375 34.18818359 68.99609375 10.38818359 C45.89609375 10.38818359 22.79609375 10.38818359 -1.00390625 10.38818359 Z " fill="#000000" transform="translate(172.00390625,295.61181640625)"/>
<path d="M0 0 C3.58598889 2.54054385 6.15992797 5.04327701 8.4921875 8.765625 C8.90210938 9.38695312 9.31203125 10.00828125 9.734375 10.6484375 C13.58244889 17.62804738 13.74273274 26.02607545 12.4921875 33.765625 C10.09120579 41.34186763 6.27912589 47.51322792 -0.5078125 51.765625 C-1.12914062 52.17554688 -1.75046875 52.58546875 -2.390625 53.0078125 C-9.37023488 56.85588639 -17.76826295 57.01617024 -25.5078125 55.765625 C-33.08405513 53.36464329 -39.25541542 49.55256339 -43.5078125 42.765625 C-43.91773438 42.14429688 -44.32765625 41.52296875 -44.75 40.8828125 C-48.59807389 33.90320262 -48.75835774 25.50517455 -47.5078125 17.765625 C-45.10683079 10.18938237 -41.29475089 4.01802208 -34.5078125 -0.234375 C-33.88648438 -0.64429688 -33.26515625 -1.05421875 -32.625 -1.4765625 C-22.455808 -7.08315125 -9.72162164 -5.63801363 0 0 Z " fill="#010000" transform="translate(88.5078125,365.234375)"/>
<path d="M0 0 C6.29671422 3.64546613 10.25669741 9.1292571 12.5 16 C13.52913515 24.87222827 13.0486814 32.74403202 7.5 40 C1.70011527 45.61279168 -4.07911606 48.28314107 -12.1875 48.4375 C-19.92067973 48.2998413 -25.89547136 46.7246796 -31.375 41.0625 C-37.56741076 33.20290173 -38.52404309 25.88471072 -37.5 16 C-35.36807613 8.57297219 -31.1945133 3.75298473 -24.5 0 C-16.99776845 -3.63173353 -7.55303575 -3.4040237 0 0 Z " fill="#010000" transform="translate(458.5,73)"/>
<path d="M0 0 C4.46341087 3.02306065 7.39332313 7.3440319 9.08203125 12.41015625 C9.82344625 19.25305206 9.17256746 24.75892315 5.08203125 30.41015625 C0.5103035 35.33259188 -4.0977587 37.47124173 -10.73046875 37.78515625 C-16.61125152 37.64513761 -21.11817477 36.01047382 -25.453125 31.984375 C-30.1821318 26.64873176 -31.40903907 21.93739642 -31.22265625 14.96875 C-30.61182087 9.83929904 -28.77615593 6.12626875 -24.9765625 2.6171875 C-17.03773873 -3.53795948 -9.13902402 -4.46547759 0 0 Z " fill="#F85757" transform="translate(81.91796875,373.58984375)"/>
<path d="M0 0 C6.04554274 2.70886819 9.9961987 7.10210843 13.15625 12.84765625 C14.68153133 18.94878156 13.79178634 23.64136441 11.1171875 29.19921875 C8.44097835 33.50306387 4.76788405 36.16641438 0.46875 38.72265625 C-5.60481909 40.13511418 -11.1046211 40.42285343 -16.59375 37.16015625 C-21.41927181 33.70640576 -24.27912648 29.9537411 -26.21875 24.34765625 C-27.16557082 17.68004436 -26.63501275 12.50687937 -22.6484375 7 C-16.49998788 -0.10599505 -9.11464711 -2.67983463 0 0 Z " fill="#030202" transform="translate(267.21875,431.65234375)"/>
<path d="M0 0 C0.91555664 -0.00571014 1.83111328 -0.01142029 2.77441406 -0.01730347 C4.28540428 -0.01898026 4.28540428 -0.01898026 5.82691956 -0.02069092 C6.88553192 -0.02565582 7.94414429 -0.03062073 9.03483582 -0.03573608 C12.54830059 -0.05038101 16.06172025 -0.05716303 19.57521057 -0.06268311 C22.00897219 -0.06843192 24.44273379 -0.07418968 26.87649536 -0.07995605 C31.9835074 -0.0904722 37.09050367 -0.09631109 42.19752502 -0.09979248 C48.75288783 -0.10528342 55.30804357 -0.12932184 61.86334133 -0.15776443 C66.89124163 -0.17635317 71.91909163 -0.18159437 76.94702339 -0.18312836 C79.36442766 -0.18616311 81.78183088 -0.19421913 84.19920158 -0.20731354 C87.57526975 -0.22429784 90.95082645 -0.22251249 94.32691956 -0.21600342 C95.83487343 -0.22982559 95.83487343 -0.22982559 97.37329102 -0.243927 C98.29166748 -0.23835785 99.21004395 -0.2327887 100.15625 -0.22705078 C100.95469047 -0.22851734 101.75313093 -0.2299839 102.57576656 -0.2314949 C105.18666583 0.23857281 106.09920456 1.00504462 107.64161682 3.14044189 C107.45411682 6.26544189 107.45411682 6.26544189 106.64161682 9.14044189 C104.29416766 10.31416647 102.89999502 10.2711302 100.28323364 10.28088379 C99.367677 10.28659393 98.45212036 10.29230408 97.50881958 10.29818726 C95.99782936 10.29986404 95.99782936 10.29986404 94.45631409 10.30157471 C93.39770172 10.30653961 92.33908936 10.31150452 91.24839783 10.31661987 C87.73493305 10.3312648 84.2215134 10.33804682 80.70802307 10.34356689 C78.27426145 10.34931571 75.84049986 10.35507347 73.40673828 10.36083984 C68.29972624 10.37135598 63.19272997 10.37719488 58.08570862 10.38067627 C51.53034581 10.3861672 44.97519007 10.41020562 38.41989231 10.43864822 C33.39199202 10.45723696 28.36414201 10.46247816 23.33621025 10.46401215 C20.91880598 10.4670469 18.50140277 10.47510291 16.08403206 10.48819733 C12.7079639 10.50518163 9.33240719 10.50339628 5.95631409 10.49688721 C4.44836021 10.51070938 4.44836021 10.51070938 2.90994263 10.52481079 C1.99156616 10.51924164 1.0731897 10.51367249 0.12698364 10.50793457 C-0.67145682 10.50940113 -1.46989729 10.51086769 -2.29253292 10.51237869 C-4.90343219 10.04231098 -5.81597091 9.27583917 -7.35838318 7.14044189 C-7.17088318 4.01544189 -7.17088318 4.01544189 -6.35838318 1.14044189 C-4.01093402 -0.03328269 -2.61676138 0.00975359 0 0 Z " fill="#000000" transform="translate(253.35838317871094,190.85955810546875)"/>
<path d="M0 0 C0.91555664 -0.00571014 1.83111328 -0.01142029 2.77441406 -0.01730347 C4.28540428 -0.01898026 4.28540428 -0.01898026 5.82691956 -0.02069092 C6.88553192 -0.02565582 7.94414429 -0.03062073 9.03483582 -0.03573608 C12.54830059 -0.05038101 16.06172025 -0.05716303 19.57521057 -0.06268311 C22.00897219 -0.06843192 24.44273379 -0.07418968 26.87649536 -0.07995605 C31.9835074 -0.0904722 37.09050367 -0.09631109 42.19752502 -0.09979248 C48.75288783 -0.10528342 55.30804357 -0.12932184 61.86334133 -0.15776443 C66.89124163 -0.17635317 71.91909163 -0.18159437 76.94702339 -0.18312836 C79.36442766 -0.18616311 81.78183088 -0.19421913 84.19920158 -0.20731354 C87.57526975 -0.22429784 90.95082645 -0.22251249 94.32691956 -0.21600342 C95.83487343 -0.22982559 95.83487343 -0.22982559 97.37329102 -0.243927 C98.29166748 -0.23835785 99.21004395 -0.2327887 100.15625 -0.22705078 C100.95469047 -0.22851734 101.75313093 -0.2299839 102.57576656 -0.2314949 C105.18666583 0.23857281 106.09920456 1.00504462 107.64161682 3.14044189 C107.45411682 6.26544189 107.45411682 6.26544189 106.64161682 9.14044189 C104.29416766 10.31416647 102.89999502 10.2711302 100.28323364 10.28088379 C99.367677 10.28659393 98.45212036 10.29230408 97.50881958 10.29818726 C95.99782936 10.29986404 95.99782936 10.29986404 94.45631409 10.30157471 C93.39770172 10.30653961 92.33908936 10.31150452 91.24839783 10.31661987 C87.73493305 10.3312648 84.2215134 10.33804682 80.70802307 10.34356689 C78.27426145 10.34931571 75.84049986 10.35507347 73.40673828 10.36083984 C68.29972624 10.37135598 63.19272997 10.37719488 58.08570862 10.38067627 C51.53034581 10.3861672 44.97519007 10.41020562 38.41989231 10.43864822 C33.39199202 10.45723696 28.36414201 10.46247816 23.33621025 10.46401215 C20.91880598 10.4670469 18.50140277 10.47510291 16.08403206 10.48819733 C12.7079639 10.50518163 9.33240719 10.50339628 5.95631409 10.49688721 C4.44836021 10.51070938 4.44836021 10.51070938 2.90994263 10.52481079 C1.99156616 10.51924164 1.0731897 10.51367249 0.12698364 10.50793457 C-0.67145682 10.50940113 -1.46989729 10.51086769 -2.29253292 10.51237869 C-4.90343219 10.04231098 -5.81597091 9.27583917 -7.35838318 7.14044189 C-7.17088318 4.01544189 -7.17088318 4.01544189 -6.35838318 1.14044189 C-4.01093402 -0.03328269 -2.61676138 0.00975359 0 0 Z " fill="#000000" transform="translate(253.35838317871094,165.85955810546875)"/>
<path d="M0 0 C0.91555664 -0.00571014 1.83111328 -0.01142029 2.77441406 -0.01730347 C4.28540428 -0.01898026 4.28540428 -0.01898026 5.82691956 -0.02069092 C6.88553192 -0.02565582 7.94414429 -0.03062073 9.03483582 -0.03573608 C12.54830059 -0.05038101 16.06172025 -0.05716303 19.57521057 -0.06268311 C22.00897219 -0.06843192 24.44273379 -0.07418968 26.87649536 -0.07995605 C31.9835074 -0.0904722 37.09050367 -0.09631109 42.19752502 -0.09979248 C48.75288783 -0.10528342 55.30804357 -0.12932184 61.86334133 -0.15776443 C66.89124163 -0.17635317 71.91909163 -0.18159437 76.94702339 -0.18312836 C79.36442766 -0.18616311 81.78183088 -0.19421913 84.19920158 -0.20731354 C87.57526975 -0.22429784 90.95082645 -0.22251249 94.32691956 -0.21600342 C95.83487343 -0.22982559 95.83487343 -0.22982559 97.37329102 -0.243927 C98.29166748 -0.23835785 99.21004395 -0.2327887 100.15625 -0.22705078 C100.95469047 -0.22851734 101.75313093 -0.2299839 102.57576656 -0.2314949 C105.18666583 0.23857281 106.09920456 1.00504462 107.64161682 3.14044189 C107.45411682 6.26544189 107.45411682 6.26544189 106.64161682 9.14044189 C104.29416766 10.31416647 102.89999502 10.2711302 100.28323364 10.28088379 C99.367677 10.28659393 98.45212036 10.29230408 97.50881958 10.29818726 C95.99782936 10.29986404 95.99782936 10.29986404 94.45631409 10.30157471 C93.39770172 10.30653961 92.33908936 10.31150452 91.24839783 10.31661987 C87.73493305 10.3312648 84.2215134 10.33804682 80.70802307 10.34356689 C78.27426145 10.34931571 75.84049986 10.35507347 73.40673828 10.36083984 C68.29972624 10.37135598 63.19272997 10.37719488 58.08570862 10.38067627 C51.53034581 10.3861672 44.97519007 10.41020562 38.41989231 10.43864822 C33.39199202 10.45723696 28.36414201 10.46247816 23.33621025 10.46401215 C20.91880598 10.4670469 18.50140277 10.47510291 16.08403206 10.48819733 C12.7079639 10.50518163 9.33240719 10.50339628 5.95631409 10.49688721 C4.44836021 10.51070938 4.44836021 10.51070938 2.90994263 10.52481079 C1.99156616 10.51924164 1.0731897 10.51367249 0.12698364 10.50793457 C-0.67145682 10.50940113 -1.46989729 10.51086769 -2.29253292 10.51237869 C-4.90343219 10.04231098 -5.81597091 9.27583917 -7.35838318 7.14044189 C-7.17088318 4.01544189 -7.17088318 4.01544189 -6.35838318 1.14044189 C-4.01093402 -0.03328269 -2.61676138 0.00975359 0 0 Z " fill="#000000" transform="translate(253.35838317871094,140.85955810546875)"/>
<path d="M0 0 C0.91555664 -0.00571014 1.83111328 -0.01142029 2.77441406 -0.01730347 C4.28540428 -0.01898026 4.28540428 -0.01898026 5.82691956 -0.02069092 C6.88553192 -0.02565582 7.94414429 -0.03062073 9.03483582 -0.03573608 C12.54830059 -0.05038101 16.06172025 -0.05716303 19.57521057 -0.06268311 C22.00897219 -0.06843192 24.44273379 -0.07418968 26.87649536 -0.07995605 C31.9835074 -0.0904722 37.09050367 -0.09631109 42.19752502 -0.09979248 C48.75288783 -0.10528342 55.30804357 -0.12932184 61.86334133 -0.15776443 C66.89124163 -0.17635317 71.91909163 -0.18159437 76.94702339 -0.18312836 C79.36442766 -0.18616311 81.78183088 -0.19421913 84.19920158 -0.20731354 C87.57526975 -0.22429784 90.95082645 -0.22251249 94.32691956 -0.21600342 C95.83487343 -0.22982559 95.83487343 -0.22982559 97.37329102 -0.243927 C98.29166748 -0.23835785 99.21004395 -0.2327887 100.15625 -0.22705078 C100.95469047 -0.22851734 101.75313093 -0.2299839 102.57576656 -0.2314949 C105.18666583 0.23857281 106.09920456 1.00504462 107.64161682 3.14044189 C107.45411682 6.26544189 107.45411682 6.26544189 106.64161682 9.14044189 C104.29416766 10.31416647 102.89999502 10.2711302 100.28323364 10.28088379 C99.367677 10.28659393 98.45212036 10.29230408 97.50881958 10.29818726 C95.99782936 10.29986404 95.99782936 10.29986404 94.45631409 10.30157471 C93.39770172 10.30653961 92.33908936 10.31150452 91.24839783 10.31661987 C87.73493305 10.3312648 84.2215134 10.33804682 80.70802307 10.34356689 C78.27426145 10.34931571 75.84049986 10.35507347 73.40673828 10.36083984 C68.29972624 10.37135598 63.19272997 10.37719488 58.08570862 10.38067627 C51.53034581 10.3861672 44.97519007 10.41020562 38.41989231 10.43864822 C33.39199202 10.45723696 28.36414201 10.46247816 23.33621025 10.46401215 C20.91880598 10.4670469 18.50140277 10.47510291 16.08403206 10.48819733 C12.7079639 10.50518163 9.33240719 10.50339628 5.95631409 10.49688721 C4.44836021 10.51070938 4.44836021 10.51070938 2.90994263 10.52481079 C1.99156616 10.51924164 1.0731897 10.51367249 0.12698364 10.50793457 C-0.67145682 10.50940113 -1.46989729 10.51086769 -2.29253292 10.51237869 C-4.90343219 10.04231098 -5.81597091 9.27583917 -7.35838318 7.14044189 C-7.17088318 4.01544189 -7.17088318 4.01544189 -6.35838318 1.14044189 C-4.01093402 -0.03328269 -2.61676138 0.00975359 0 0 Z " fill="#000000" transform="translate(253.35838317871094,115.85955810546875)"/>
<path d="M0 0 C1.31022881 -0.00856522 1.31022881 -0.00856522 2.64692688 -0.01730347 C3.6075 -0.01842133 4.56807312 -0.01953918 5.55775452 -0.02069092 C7.07252129 -0.02813828 7.07252129 -0.02813828 8.6178894 -0.03573608 C11.96902642 -0.0503793 15.32011612 -0.05716274 18.67127991 -0.06268311 C20.99294029 -0.06843207 23.31460065 -0.07418983 25.63626099 -0.07995605 C30.50788088 -0.09047171 35.37948424 -0.09631092 40.25111389 -0.09979248 C46.5038103 -0.10528328 52.7562896 -0.12932158 59.00891781 -0.15776443 C63.8052027 -0.17635476 68.60143488 -0.18159445 73.39775276 -0.18312836 C75.70351412 -0.18616276 78.00927437 -0.19421761 80.31500053 -0.20731354 C83.5354114 -0.22430119 86.75528622 -0.22251172 89.97572327 -0.21600342 C90.93427216 -0.2252182 91.89282104 -0.23443298 92.88041687 -0.243927 C93.75672256 -0.23835785 94.63302826 -0.2327887 95.53588867 -0.22705078 C96.67824179 -0.22925062 96.67824179 -0.22925062 97.84367275 -0.2314949 C100.40003692 0.24683461 101.31046174 1.05520425 102.83143616 3.14044189 C102.64393616 6.26544189 102.64393616 6.26544189 101.83143616 9.14044189 C99.52970588 10.29130703 98.22319805 10.27087829 95.66287231 10.28088379 C94.35264351 10.28944901 94.35264351 10.28944901 93.01594543 10.29818726 C91.57508575 10.29986404 91.57508575 10.29986404 90.1051178 10.30157471 C88.59035103 10.30902206 88.59035103 10.30902206 87.04498291 10.31661987 C83.6938459 10.33126309 80.3427562 10.33804653 76.99159241 10.34356689 C74.66993203 10.34931586 72.34827167 10.35507362 70.02661133 10.36083984 C65.15499143 10.3713555 60.28338808 10.37719471 55.41175842 10.38067627 C49.15906202 10.38616707 42.90658272 10.41020537 36.65395451 10.43864822 C31.85766961 10.45723855 27.06143744 10.46247824 22.26511955 10.46401215 C19.9593582 10.46704655 17.65359794 10.4751014 15.34787178 10.48819733 C12.12746092 10.50518497 8.90758609 10.5033955 5.68714905 10.49688721 C4.72860016 10.50610199 3.77005127 10.51531677 2.78245544 10.52481079 C1.90614975 10.51924164 1.02984406 10.51367249 0.12698364 10.50793457 C-1.01536948 10.51013441 -1.01536948 10.51013441 -2.18080044 10.51237869 C-4.73716461 10.03404918 -5.64758943 9.22567954 -7.16856384 7.14044189 C-6.98106384 4.01544189 -6.98106384 4.01544189 -6.16856384 1.14044189 C-3.86683356 -0.01042324 -2.56032573 0.0100055 0 0 Z " fill="#000000" transform="translate(83.16856384277344,195.85955810546875)"/>
<path d="M0 0 C1.31022881 -0.00856522 1.31022881 -0.00856522 2.64692688 -0.01730347 C3.6075 -0.01842133 4.56807312 -0.01953918 5.55775452 -0.02069092 C7.07252129 -0.02813828 7.07252129 -0.02813828 8.6178894 -0.03573608 C11.96902642 -0.0503793 15.32011612 -0.05716274 18.67127991 -0.06268311 C20.99294029 -0.06843207 23.31460065 -0.07418983 25.63626099 -0.07995605 C30.50788088 -0.09047171 35.37948424 -0.09631092 40.25111389 -0.09979248 C46.5038103 -0.10528328 52.7562896 -0.12932158 59.00891781 -0.15776443 C63.8052027 -0.17635476 68.60143488 -0.18159445 73.39775276 -0.18312836 C75.70351412 -0.18616276 78.00927437 -0.19421761 80.31500053 -0.20731354 C83.5354114 -0.22430119 86.75528622 -0.22251172 89.97572327 -0.21600342 C90.93427216 -0.2252182 91.89282104 -0.23443298 92.88041687 -0.243927 C93.75672256 -0.23835785 94.63302826 -0.2327887 95.53588867 -0.22705078 C96.67824179 -0.22925062 96.67824179 -0.22925062 97.84367275 -0.2314949 C100.40003692 0.24683461 101.31046174 1.05520425 102.83143616 3.14044189 C102.64393616 6.26544189 102.64393616 6.26544189 101.83143616 9.14044189 C99.52970588 10.29130703 98.22319805 10.27087829 95.66287231 10.28088379 C94.35264351 10.28944901 94.35264351 10.28944901 93.01594543 10.29818726 C91.57508575 10.29986404 91.57508575 10.29986404 90.1051178 10.30157471 C88.59035103 10.30902206 88.59035103 10.30902206 87.04498291 10.31661987 C83.6938459 10.33126309 80.3427562 10.33804653 76.99159241 10.34356689 C74.66993203 10.34931586 72.34827167 10.35507362 70.02661133 10.36083984 C65.15499143 10.3713555 60.28338808 10.37719471 55.41175842 10.38067627 C49.15906202 10.38616707 42.90658272 10.41020537 36.65395451 10.43864822 C31.85766961 10.45723855 27.06143744 10.46247824 22.26511955 10.46401215 C19.9593582 10.46704655 17.65359794 10.4751014 15.34787178 10.48819733 C12.12746092 10.50518497 8.90758609 10.5033955 5.68714905 10.49688721 C4.72860016 10.50610199 3.77005127 10.51531677 2.78245544 10.52481079 C1.90614975 10.51924164 1.02984406 10.51367249 0.12698364 10.50793457 C-1.01536948 10.51013441 -1.01536948 10.51013441 -2.18080044 10.51237869 C-4.73716461 10.03404918 -5.64758943 9.22567954 -7.16856384 7.14044189 C-6.98106384 4.01544189 -6.98106384 4.01544189 -6.16856384 1.14044189 C-3.86683356 -0.01042324 -2.56032573 0.0100055 0 0 Z " fill="#000000" transform="translate(83.16856384277344,170.85955810546875)"/>
<path d="M0 0 C4.36492736 2.40706674 5.93942071 4.83284673 7.8125 9.4375 C8.54520346 14.47483626 7.62027557 18.24512573 5.20703125 22.63671875 C1.9113554 26.89247944 -2.54684459 28.17382324 -7.6875 29 C-12.37661747 28.24639184 -15.64727219 26.60297396 -19.1875 23.4375 C-21.97287223 18.73718437 -22.86540686 14.86075487 -22.1875 9.4375 C-20.44294414 4.504976 -17.73316107 1.40475576 -13.0390625 -0.90234375 C-8.34602817 -2.57559861 -4.45447532 -1.90552555 0 0 Z " fill="#F85757" transform="translate(453.1875,82.5625)"/>
<path d="M0 0 C0.87107895 -0.00960754 1.7421579 -0.01921509 2.63963318 -0.02911377 C3.58234573 -0.03336365 4.52505829 -0.03761353 5.49633789 -0.04199219 C6.94635948 -0.0505423 6.94635948 -0.0505423 8.42567444 -0.05926514 C10.47257388 -0.06872054 12.51948859 -0.07525126 14.56640625 -0.07910156 C17.70282402 -0.0888171 20.83858936 -0.11983952 23.97485352 -0.15136719 C25.96117774 -0.15789611 27.94750666 -0.16314702 29.93383789 -0.16699219 C30.87452621 -0.17933899 31.81521454 -0.19168579 32.78440857 -0.20440674 C33.65863968 -0.20140564 34.53287079 -0.19840454 35.43359375 -0.1953125 C36.20255478 -0.19895813 36.97151581 -0.20260376 37.76377869 -0.20635986 C40.34355482 0.26350264 41.25093805 1.05624624 42.78149414 3.16113281 C42.59399414 6.28613281 42.59399414 6.28613281 41.78149414 9.16113281 C39.47530316 10.3142283 38.12931593 10.29945427 35.56298828 10.32226562 C34.69190933 10.33187317 33.82083038 10.34148071 32.9233551 10.35137939 C31.98064255 10.35562927 31.03792999 10.35987915 30.06665039 10.36425781 C28.6166288 10.37280792 28.6166288 10.37280792 27.13731384 10.38153076 C25.0904144 10.39098617 23.04349969 10.39751688 20.99658203 10.40136719 C17.86016426 10.41108272 14.72439892 10.44210514 11.58813477 10.47363281 C9.60181054 10.48016173 7.61548162 10.48541264 5.62915039 10.48925781 C4.2181179 10.50777802 4.2181179 10.50777802 2.77857971 10.52667236 C1.9043486 10.52367126 1.03011749 10.52067017 0.12939453 10.51757812 C-1.02404701 10.52304657 -1.02404701 10.52304657 -2.20079041 10.52862549 C-4.78056654 10.05876299 -5.68794977 9.26601939 -7.21850586 7.16113281 C-7.03100586 4.03613281 -7.03100586 4.03613281 -6.21850586 1.16113281 C-3.91231488 0.00803732 -2.56632765 0.02281135 0 0 Z " fill="#000101" transform="translate(83.218505859375,145.8388671875)"/>
<path d="M0 0 C0.74584854 0.00091141 1.49169708 0.00182281 2.26014709 0.00276184 C3.02706375 -0.00152328 3.79398041 -0.00580841 4.58413696 -0.01022339 C6.20733146 -0.01597014 7.83055172 -0.0164644 9.45375061 -0.01213074 C11.93849128 -0.00897351 14.42203836 -0.03241445 16.90663147 -0.05778503 C18.48280184 -0.06005827 20.05897542 -0.06076141 21.63514709 -0.05973816 C22.75088356 -0.07355278 22.75088356 -0.07355278 23.88916016 -0.08764648 C29.00620737 -0.04172289 29.00620737 -0.04172289 31.51820374 1.66609192 C32.51405334 3.30354309 32.51405334 3.30354309 32.32655334 5.86604309 C31.51405334 8.30354309 31.51405334 8.30354309 29.51405334 10.30354309 C26.89641339 10.51547868 24.3872063 10.60752499 21.76795959 10.60432434 C21.00104294 10.60860947 20.23412628 10.61289459 19.44396973 10.61730957 C17.82077523 10.62305632 16.19755497 10.62355059 14.57435608 10.61921692 C12.08961541 10.61605969 9.60606833 10.63950063 7.12147522 10.66487122 C5.54530485 10.66714445 3.96913127 10.66784759 2.39295959 10.66682434 C1.64913528 10.67603409 0.90531097 10.68524384 0.13894653 10.69473267 C-4.97810068 10.64880907 -4.97810068 10.64880907 -7.49009705 8.94099426 C-8.48594666 7.30354309 -8.48594666 7.30354309 -8.29844666 4.74104309 C-6.73470702 0.04982419 -4.59685183 0.06342126 0 0 Z " fill="#010102" transform="translate(248.48594665527344,50.69645690917969)"/>
<path d="M0 0 C2.5625 1.4375 2.5625 1.4375 4 4 C4.71966757 8.55284429 4.84857669 12.48731981 2.5625 16.5625 C-1.18743047 18.66611953 -4.70782613 19.34429202 -9 19 C-11.92143417 17.23496686 -13.47923817 16.04152365 -15 13 C-15.5811138 5.91041162 -15.5811138 5.91041162 -13.125 2.0625 C-9.00522691 -1.93610329 -5.34233867 -1.17664297 0 0 Z " fill="#F65656" transform="translate(266,442)"/>
<path d="M0 0 C0.7734375 -0.00773437 1.546875 -0.01546875 2.34375 -0.0234375 C5.04583262 0.47586038 5.92075936 1.14022551 7.5 3.375 C7.8984375 5.53125 7.8984375 5.53125 7.875 7.875 C7.88273437 8.6484375 7.89046875 9.421875 7.8984375 10.21875 C7.39913962 12.92083262 6.73477449 13.79575936 4.5 15.375 C2.34375 15.7734375 2.34375 15.7734375 0 15.75 C-0.7734375 15.75773437 -1.546875 15.76546875 -2.34375 15.7734375 C-5.04583262 15.27413962 -5.92075936 14.60977449 -7.5 12.375 C-7.8984375 10.21875 -7.8984375 10.21875 -7.875 7.875 C-7.88273437 7.1015625 -7.89046875 6.328125 -7.8984375 5.53125 C-7.04925027 0.93564854 -4.36327591 -0.04363276 0 0 Z " fill="#000000" transform="translate(93.5,450.625)"/>
<path d="M0 0 C0.7734375 -0.00773437 1.546875 -0.01546875 2.34375 -0.0234375 C5.04583262 0.47586038 5.92075936 1.14022551 7.5 3.375 C7.8984375 5.53125 7.8984375 5.53125 7.875 7.875 C7.88273437 8.6484375 7.89046875 9.421875 7.8984375 10.21875 C7.39913962 12.92083262 6.73477449 13.79575936 4.5 15.375 C2.34375 15.7734375 2.34375 15.7734375 0 15.75 C-0.7734375 15.75773437 -1.546875 15.76546875 -2.34375 15.7734375 C-5.04583262 15.27413962 -5.92075936 14.60977449 -7.5 12.375 C-7.8984375 10.21875 -7.8984375 10.21875 -7.875 7.875 C-7.88273437 7.1015625 -7.89046875 6.328125 -7.8984375 5.53125 C-7.04925027 0.93564854 -4.36327591 -0.04363276 0 0 Z " fill="#000000" transform="translate(448.5,375.625)"/>
<path d="M0 0 C0.7734375 -0.00773437 1.546875 -0.01546875 2.34375 -0.0234375 C5.04583262 0.47586038 5.92075936 1.14022551 7.5 3.375 C7.8984375 5.53125 7.8984375 5.53125 7.875 7.875 C7.88273437 8.6484375 7.89046875 9.421875 7.8984375 10.21875 C7.39913962 12.92083262 6.73477449 13.79575936 4.5 15.375 C2.34375 15.7734375 2.34375 15.7734375 0 15.75 C-0.7734375 15.75773437 -1.546875 15.76546875 -2.34375 15.7734375 C-5.04583262 15.27413962 -5.92075936 14.60977449 -7.5 12.375 C-7.8984375 10.21875 -7.8984375 10.21875 -7.875 7.875 C-7.88273437 7.1015625 -7.89046875 6.328125 -7.8984375 5.53125 C-7.04925027 0.93564854 -4.36327591 -0.04363276 0 0 Z " fill="#000000" transform="translate(53.5,325.625)"/>
<path d="M0 0 C0.7734375 -0.00773437 1.546875 -0.01546875 2.34375 -0.0234375 C5.04583262 0.47586038 5.92075936 1.14022551 7.5 3.375 C7.8984375 5.53125 7.8984375 5.53125 7.875 7.875 C7.88273437 8.6484375 7.89046875 9.421875 7.8984375 10.21875 C7.39913962 12.92083262 6.73477449 13.79575936 4.5 15.375 C2.34375 15.7734375 2.34375 15.7734375 0 15.75 C-0.7734375 15.75773437 -1.546875 15.76546875 -2.34375 15.7734375 C-5.04583262 15.27413962 -5.92075936 14.60977449 -7.5 12.375 C-7.8984375 10.21875 -7.8984375 10.21875 -7.875 7.875 C-7.88273437 7.1015625 -7.89046875 6.328125 -7.8984375 5.53125 C-7.04925027 0.93564854 -4.36327591 -0.04363276 0 0 Z " fill="#000000" transform="translate(93.5,260.625)"/>
<path d="M0 0 C0.7734375 -0.00773438 1.546875 -0.01546875 2.34375 -0.0234375 C5.04583262 0.47586038 5.92075936 1.14022551 7.5 3.375 C7.8984375 5.53125 7.8984375 5.53125 7.875 7.875 C7.88273437 8.6484375 7.89046875 9.421875 7.8984375 10.21875 C7.39913962 12.92083262 6.73477449 13.79575936 4.5 15.375 C2.34375 15.7734375 2.34375 15.7734375 0 15.75 C-0.7734375 15.75773438 -1.546875 15.76546875 -2.34375 15.7734375 C-5.04583262 15.27413962 -5.92075936 14.60977449 -7.5 12.375 C-7.8984375 10.21875 -7.8984375 10.21875 -7.875 7.875 C-7.88273437 7.1015625 -7.89046875 6.328125 -7.8984375 5.53125 C-7.04925027 0.93564854 -4.36327591 -0.04363276 0 0 Z " fill="#000000" transform="translate(448.5,165.625)"/>
<path d="M0 0 C0.7734375 -0.00773437 1.546875 -0.01546875 2.34375 -0.0234375 C5.04583262 0.47586038 5.92075936 1.14022551 7.5 3.375 C7.8984375 5.53125 7.8984375 5.53125 7.875 7.875 C7.88273437 8.6484375 7.89046875 9.421875 7.8984375 10.21875 C7.39913962 12.92083262 6.73477449 13.79575936 4.5 15.375 C2.34375 15.7734375 2.34375 15.7734375 0 15.75 C-0.7734375 15.75773437 -1.546875 15.76546875 -2.34375 15.7734375 C-5.04583262 15.27413962 -5.92075936 14.60977449 -7.5 12.375 C-7.8984375 10.21875 -7.8984375 10.21875 -7.875 7.875 C-7.88273437 7.1015625 -7.89046875 6.328125 -7.8984375 5.53125 C-7.04925027 0.93564854 -4.36327591 -0.04363276 0 0 Z " fill="#000000" transform="translate(68.5,50.625)"/>
</svg>
